<svg width="24" height="25" viewBox="0 0 24 25" fill="none" xmlns="http://www.w3.org/2000/svg">
<path d="M6.99805 0.299927C3.13905 0.299927 0 3.44188 0 7.30188V17.3019C0 21.1609 3.14195 24.2999 7.00195 24.2999H17.002C20.861 24.2999 24 21.158 24 17.298V7.29797C24 3.43897 20.858 0.299927 16.998 0.299927H6.99805ZM19 4.29993C19.552 4.29993 20 4.74793 20 5.29993C20 5.85193 19.552 6.29993 19 6.29993C18.448 6.29993 18 5.85193 18 5.29993C18 4.74793 18.448 4.29993 19 4.29993ZM12 6.29993C15.309 6.29993 18 8.99093 18 12.2999C18 15.6089 15.309 18.2999 12 18.2999C8.691 18.2999 6 15.6089 6 12.2999C6 8.99093 8.691 6.29993 12 6.29993ZM12 8.29993C10.9391 8.29993 9.92172 8.72135 9.17157 9.4715C8.42143 10.2216 8 11.2391 8 12.2999C8 13.3608 8.42143 14.3782 9.17157 15.1284C9.92172 15.8785 10.9391 16.2999 12 16.2999C13.0609 16.2999 14.0783 15.8785 14.8284 15.1284C15.5786 14.3782 16 13.3608 16 12.2999C16 11.2391 15.5786 10.2216 14.8284 9.4715C14.0783 8.72135 13.0609 8.29993 12 8.29993Z" fill="white"/>
</svg>
