<svg width="30" height="30" viewBox="0 0 30 30" fill="none" xmlns="http://www.w3.org/2000/svg">
<g clip-path="url(#clip0_26_107)">
<path d="M14.9996 0C9.25914 0 4.58905 4.67077 4.58905 10.4113C4.58905 15.9371 14.0347 28.8473 14.4369 29.394L14.8122 29.9049C14.8561 29.9649 14.926 30 14.9996 30C15.0742 30 15.1437 29.9649 15.188 29.9049L15.5631 29.394C15.9656 28.8473 25.411 15.9371 25.411 10.4113C25.411 4.67077 20.7401 0 14.9996 0ZM14.9996 6.68201C17.0564 6.68201 18.7289 8.3546 18.7289 10.4113C18.7289 12.467 17.0563 14.1407 14.9996 14.1407C12.944 14.1407 11.2702 12.467 11.2702 10.4113C11.2702 8.3546 12.9439 6.68201 14.9996 6.68201Z" fill="#BBBBBB"/>
</g>
<defs>
<clipPath id="clip0_26_107">
<rect width="30" height="30" fill="white"/>
</clipPath>
</defs>
</svg>
