<svg width="26" height="31" viewBox="0 0 26 31" fill="none" xmlns="http://www.w3.org/2000/svg">
<path d="M12.0332 0.364378C11.0605 0.505003 9.71288 1.06164 8.95702 1.64172C8.46484 2.01086 7.70312 2.80774 7.38085 3.27649C7.03515 3.78625 6.64257 4.63 6.47265 5.22766C6.27343 5.93078 6.20312 6.505 6.20312 7.45422V8.26867H4.04101C2.35351 8.26867 1.86718 8.28625 1.8203 8.34485C1.77929 8.38586 1.41601 12.9152 0.929679 19.2784C0.291007 27.6808 0.121085 30.1534 0.17382 30.2179C0.273429 30.3409 25.7266 30.3409 25.8262 30.2179C25.8789 30.1534 25.709 27.6808 25.0703 19.2784C24.584 12.9152 24.2207 8.38586 24.1797 8.34485C24.1328 8.28625 23.6465 8.26867 21.959 8.26867H19.7969V7.48938C19.7969 6.54016 19.7207 5.91321 19.5273 5.23938C19.3574 4.63 18.9648 3.78625 18.6191 3.27649C18.2617 2.755 17.4062 1.88196 16.8965 1.53625C15.4902 0.563597 13.6855 0.124144 12.0332 0.364378ZM13.7617 2.23938C14.8281 2.4093 15.666 2.84875 16.457 3.63977C17.5293 4.71203 17.9219 5.74914 17.9219 7.48938V8.26867H13H8.07812V7.48938C8.07812 6.57532 8.14257 6.12414 8.36523 5.47375C9.12695 3.25305 11.4473 1.86438 13.7617 2.23938ZM6.21484 11.6027C6.23241 12.9503 6.24413 12.9796 6.63671 13.2726C6.86523 13.4425 7.41601 13.4425 7.64452 13.2726C8.0371 12.9796 8.04882 12.9503 8.0664 11.6027C8.07812 10.6534 8.10155 10.378 8.16015 10.378C8.27734 10.378 8.85155 10.8116 8.99218 11.005C9.54296 11.755 9.63085 12.6925 9.22655 13.5187C8.9746 14.0226 8.62304 14.3624 8.08984 14.6144C7.73241 14.7843 7.64452 14.8019 7.14062 14.8019C6.63671 14.8019 6.54882 14.7843 6.20312 14.6202C5.64648 14.3507 5.30663 14.0284 5.04882 13.4952C4.83788 13.0675 4.82616 13.0265 4.82616 12.464C4.82616 11.9425 4.84374 11.8312 4.98437 11.5382C5.07226 11.3507 5.21288 11.1105 5.29491 10.9991C5.45312 10.7882 5.99804 10.3839 6.12695 10.378C6.17968 10.378 6.20312 10.7003 6.21484 11.6027ZM17.9336 11.6027C17.9512 12.9503 17.9629 12.9796 18.3555 13.2726C18.584 13.4425 19.1348 13.4425 19.3633 13.2726C19.7559 12.9796 19.7676 12.9503 19.7851 11.6027C19.7969 10.6534 19.8203 10.378 19.8789 10.378C19.9961 10.378 20.5703 10.8116 20.7109 11.005C21.2617 11.755 21.3496 12.6925 20.9453 13.5187C20.6934 14.0226 20.3418 14.3624 19.8086 14.6144C19.4512 14.7843 19.3633 14.8019 18.8594 14.8019C18.3555 14.8019 18.2676 14.7843 17.9219 14.6202C17.3652 14.3507 17.0254 14.0284 16.7676 13.4952C16.5566 13.0675 16.5449 13.0265 16.5449 12.464C16.5449 11.9425 16.5625 11.8312 16.7031 11.5382C16.791 11.3507 16.9316 11.1105 17.0137 10.9991C17.1719 10.7882 17.7168 10.3839 17.8457 10.378C17.8984 10.378 17.9219 10.7003 17.9336 11.6027Z" fill="white"/>
</svg>
