<svg width="30" height="31" viewBox="0 0 30 31" fill="none" xmlns="http://www.w3.org/2000/svg">
<path d="M26.939 8.99995C26.7 7.68042 25.5609 6.71948 24.239 6.41948C22.2609 5.99995 18.6 5.69995 14.639 5.69995C10.6805 5.69995 6.96093 5.99995 4.98046 6.41948C3.66093 6.71948 2.51952 7.61948 2.28046 8.99995C2.03905 10.5 1.79999 12.6 1.79999 15.3C1.79999 18 2.03905 20.1 2.33905 21.6C2.58046 22.9195 3.71952 23.8804 5.03905 24.1804C7.13905 24.6 10.739 24.9 14.7 24.9C18.6609 24.9 22.2609 24.6 24.3609 24.1804C25.6805 23.8804 26.8195 22.9804 27.0609 21.6C27.3 20.1 27.6 17.939 27.6609 15.3C27.539 12.6 27.239 10.5 26.939 8.99995ZM11.4 19.5V11.1L18.7195 15.3L11.4 19.5Z" fill="white"/>
</svg>
